<mxfile host="Electron" agent="Mozilla/5.0 (Macintosh; Intel Mac OS X 10_15_7) AppleWebKit/537.36 (KHTML, like Gecko) draw.io/28.1.2 Chrome/138.0.7204.243 Electron/37.4.0 Safari/537.36" version="28.1.2">
  <diagram name="RAG核心流程" id="JKx-FvenfKslHEoDBpSc">
    <mxGraphModel dx="2253" dy="853" grid="1" gridSize="10" guides="1" tooltips="1" connect="1" arrows="1" fold="1" page="1" pageScale="1" pageWidth="827" pageHeight="1169" math="0" shadow="0">
      <root>
        <mxCell id="0" />
        <mxCell id="1" parent="0" />
        <mxCell id="Zxp3NIF342L1-s8h1Rc8-51" value="" style="rounded=0;whiteSpace=wrap;html=1;strokeColor=none;" vertex="1" parent="1">
          <mxGeometry x="-40" y="150" width="890" height="410" as="geometry" />
        </mxCell>
        <mxCell id="Zxp3NIF342L1-s8h1Rc8-2" value="知识库" style="strokeWidth=2;html=1;shape=mxgraph.flowchart.database;whiteSpace=wrap;fillColor=#1ba1e2;fontColor=#ffffff;strokeColor=#006EAF;fontSize=14;fontStyle=1" vertex="1" parent="1">
          <mxGeometry x="-30" y="170" width="100" height="40" as="geometry" />
        </mxCell>
        <mxCell id="Zxp3NIF342L1-s8h1Rc8-7" value="" style="edgeStyle=orthogonalEdgeStyle;rounded=0;orthogonalLoop=1;jettySize=auto;html=1;fontStyle=1;fontSize=14;" edge="1" parent="1" source="Zxp3NIF342L1-s8h1Rc8-3" target="Zxp3NIF342L1-s8h1Rc8-6">
          <mxGeometry relative="1" as="geometry" />
        </mxCell>
        <mxCell id="Zxp3NIF342L1-s8h1Rc8-3" value="文档" style="strokeWidth=2;html=1;shape=mxgraph.flowchart.document2;whiteSpace=wrap;size=0.25;strokeColor=#006EAF;align=center;verticalAlign=middle;fontFamily=Helvetica;fontSize=14;fontColor=#ffffff;fillColor=#1ba1e2;fontStyle=1" vertex="1" parent="1">
          <mxGeometry x="180" y="160" width="100" height="60" as="geometry" />
        </mxCell>
        <mxCell id="Zxp3NIF342L1-s8h1Rc8-4" style="edgeStyle=orthogonalEdgeStyle;rounded=0;orthogonalLoop=1;jettySize=auto;html=1;entryX=0;entryY=0.5;entryDx=0;entryDy=0;entryPerimeter=0;fontStyle=1;fontSize=14;" edge="1" parent="1" source="Zxp3NIF342L1-s8h1Rc8-2" target="Zxp3NIF342L1-s8h1Rc8-3">
          <mxGeometry relative="1" as="geometry" />
        </mxCell>
        <mxCell id="Zxp3NIF342L1-s8h1Rc8-5" value="清洗" style="edgeLabel;html=1;align=center;verticalAlign=middle;resizable=0;points=[];fontStyle=1;fontSize=14;" vertex="1" connectable="0" parent="Zxp3NIF342L1-s8h1Rc8-4">
          <mxGeometry x="-0.0545" y="2" relative="1" as="geometry">
            <mxPoint as="offset" />
          </mxGeometry>
        </mxCell>
        <mxCell id="Zxp3NIF342L1-s8h1Rc8-6" value="切分" style="whiteSpace=wrap;html=1;strokeWidth=2;rounded=1;fontSize=14;fontStyle=1" vertex="1" parent="1">
          <mxGeometry x="350" y="160" width="120" height="60" as="geometry" />
        </mxCell>
        <mxCell id="Zxp3NIF342L1-s8h1Rc8-13" value="" style="edgeStyle=orthogonalEdgeStyle;rounded=0;orthogonalLoop=1;jettySize=auto;html=1;fontStyle=1;fontSize=14;" edge="1" parent="1" source="Zxp3NIF342L1-s8h1Rc8-8" target="Zxp3NIF342L1-s8h1Rc8-12">
          <mxGeometry relative="1" as="geometry" />
        </mxCell>
        <mxCell id="Zxp3NIF342L1-s8h1Rc8-8" value="分段" style="strokeWidth=2;html=1;shape=mxgraph.flowchart.multi-document;whiteSpace=wrap;strokeColor=#006EAF;align=center;verticalAlign=middle;fontFamily=Helvetica;fontSize=14;fontColor=#ffffff;fillColor=#1ba1e2;fontStyle=1" vertex="1" parent="1">
          <mxGeometry x="550" y="160" width="88" height="60" as="geometry" />
        </mxCell>
        <mxCell id="Zxp3NIF342L1-s8h1Rc8-11" style="edgeStyle=orthogonalEdgeStyle;rounded=0;orthogonalLoop=1;jettySize=auto;html=1;entryX=0;entryY=0.5;entryDx=0;entryDy=0;entryPerimeter=0;fontStyle=1;fontSize=14;" edge="1" parent="1" source="Zxp3NIF342L1-s8h1Rc8-6" target="Zxp3NIF342L1-s8h1Rc8-8">
          <mxGeometry relative="1" as="geometry" />
        </mxCell>
        <mxCell id="Zxp3NIF342L1-s8h1Rc8-23" style="edgeStyle=orthogonalEdgeStyle;rounded=0;orthogonalLoop=1;jettySize=auto;html=1;fontStyle=1;fontSize=14;" edge="1" parent="1" source="Zxp3NIF342L1-s8h1Rc8-12" target="Zxp3NIF342L1-s8h1Rc8-21">
          <mxGeometry relative="1" as="geometry" />
        </mxCell>
        <mxCell id="Zxp3NIF342L1-s8h1Rc8-12" value="向量模型" style="whiteSpace=wrap;html=1;strokeWidth=2;fillColor=#e6d0de;strokeColor=#996185;gradientColor=#d5739d;fontStyle=1;fontSize=14;" vertex="1" parent="1">
          <mxGeometry x="720" y="160" width="120" height="60" as="geometry" />
        </mxCell>
        <mxCell id="Zxp3NIF342L1-s8h1Rc8-14" value="" style="endArrow=none;dashed=1;html=1;rounded=0;fontStyle=1;fontSize=14;" edge="1" parent="1">
          <mxGeometry width="50" height="50" relative="1" as="geometry">
            <mxPoint x="-40" y="265" as="sourcePoint" />
            <mxPoint x="840" y="265" as="targetPoint" />
          </mxGeometry>
        </mxCell>
        <mxCell id="Zxp3NIF342L1-s8h1Rc8-17" value="" style="edgeStyle=orthogonalEdgeStyle;rounded=0;orthogonalLoop=1;jettySize=auto;html=1;fontStyle=1;fontSize=14;" edge="1" parent="1" source="Zxp3NIF342L1-s8h1Rc8-15" target="Zxp3NIF342L1-s8h1Rc8-16">
          <mxGeometry relative="1" as="geometry" />
        </mxCell>
        <mxCell id="Zxp3NIF342L1-s8h1Rc8-48" value="请求" style="edgeLabel;html=1;align=center;verticalAlign=middle;resizable=0;points=[];fontStyle=1;fontSize=14;" vertex="1" connectable="0" parent="Zxp3NIF342L1-s8h1Rc8-17">
          <mxGeometry x="-0.175" y="3" relative="1" as="geometry">
            <mxPoint as="offset" />
          </mxGeometry>
        </mxCell>
        <mxCell id="Zxp3NIF342L1-s8h1Rc8-15" value="" style="shape=umlActor;verticalLabelPosition=bottom;verticalAlign=top;html=1;outlineConnect=0;fontStyle=1;fontSize=14;" vertex="1" parent="1">
          <mxGeometry x="-10" y="310" width="30" height="60" as="geometry" />
        </mxCell>
        <mxCell id="Zxp3NIF342L1-s8h1Rc8-19" value="" style="edgeStyle=orthogonalEdgeStyle;rounded=0;orthogonalLoop=1;jettySize=auto;html=1;fontStyle=1;fontSize=14;" edge="1" parent="1" source="Zxp3NIF342L1-s8h1Rc8-16" target="Zxp3NIF342L1-s8h1Rc8-18">
          <mxGeometry relative="1" as="geometry" />
        </mxCell>
        <mxCell id="Zxp3NIF342L1-s8h1Rc8-20" value="向量化" style="edgeLabel;html=1;align=center;verticalAlign=middle;resizable=0;points=[];fontStyle=1;fontSize=14;" vertex="1" connectable="0" parent="Zxp3NIF342L1-s8h1Rc8-19">
          <mxGeometry x="-0.0133" y="3" relative="1" as="geometry">
            <mxPoint as="offset" />
          </mxGeometry>
        </mxCell>
        <mxCell id="Zxp3NIF342L1-s8h1Rc8-16" value="问题" style="rounded=1;whiteSpace=wrap;html=1;verticalAlign=middle;align=center;strokeColor=#006EAF;strokeWidth=2;fontFamily=Helvetica;fontSize=14;fontColor=#ffffff;fillColor=#1ba1e2;fontStyle=1" vertex="1" parent="1">
          <mxGeometry x="180" y="310" width="130" height="60" as="geometry" />
        </mxCell>
        <mxCell id="Zxp3NIF342L1-s8h1Rc8-18" value="向量模型" style="whiteSpace=wrap;html=1;rounded=0;fillColor=#e6d0de;gradientColor=#d5739d;strokeColor=#996185;fontStyle=1;fontSize=14;" vertex="1" parent="1">
          <mxGeometry x="460" y="310" width="120" height="60" as="geometry" />
        </mxCell>
        <mxCell id="Zxp3NIF342L1-s8h1Rc8-39" style="edgeStyle=orthogonalEdgeStyle;rounded=0;orthogonalLoop=1;jettySize=auto;html=1;fontStyle=1;fontSize=14;" edge="1" parent="1" source="Zxp3NIF342L1-s8h1Rc8-21">
          <mxGeometry relative="1" as="geometry">
            <mxPoint x="780" y="450" as="targetPoint" />
          </mxGeometry>
        </mxCell>
        <mxCell id="Zxp3NIF342L1-s8h1Rc8-21" value="向量数据库" style="strokeWidth=2;html=1;shape=mxgraph.flowchart.database;whiteSpace=wrap;align=center;verticalAlign=middle;fillColor=#76608a;fontColor=#ffffff;strokeColor=#432D57;fontStyle=1;fontSize=14;" vertex="1" parent="1">
          <mxGeometry x="750" y="295" width="60" height="90" as="geometry" />
        </mxCell>
        <mxCell id="Zxp3NIF342L1-s8h1Rc8-22" style="edgeStyle=orthogonalEdgeStyle;rounded=0;orthogonalLoop=1;jettySize=auto;html=1;entryX=0;entryY=0.5;entryDx=0;entryDy=0;entryPerimeter=0;fontStyle=1;fontSize=14;" edge="1" parent="1" source="Zxp3NIF342L1-s8h1Rc8-18" target="Zxp3NIF342L1-s8h1Rc8-21">
          <mxGeometry relative="1" as="geometry" />
        </mxCell>
        <mxCell id="Zxp3NIF342L1-s8h1Rc8-47" value="相似度查询" style="edgeLabel;html=1;align=center;verticalAlign=middle;resizable=0;points=[];fontStyle=1;fontSize=14;" vertex="1" connectable="0" parent="Zxp3NIF342L1-s8h1Rc8-22">
          <mxGeometry x="-0.4471" y="1" relative="1" as="geometry">
            <mxPoint x="33" y="1" as="offset" />
          </mxGeometry>
        </mxCell>
        <mxCell id="Zxp3NIF342L1-s8h1Rc8-43" value="" style="edgeStyle=orthogonalEdgeStyle;rounded=0;orthogonalLoop=1;jettySize=auto;html=1;fontStyle=1;fontSize=14;" edge="1" parent="1" source="Zxp3NIF342L1-s8h1Rc8-40" target="Zxp3NIF342L1-s8h1Rc8-42">
          <mxGeometry relative="1" as="geometry" />
        </mxCell>
        <mxCell id="Zxp3NIF342L1-s8h1Rc8-46" value="输入" style="edgeLabel;html=1;align=center;verticalAlign=middle;resizable=0;points=[];fontStyle=1;fontSize=14;" vertex="1" connectable="0" parent="Zxp3NIF342L1-s8h1Rc8-43">
          <mxGeometry x="0.0533" y="-1" relative="1" as="geometry">
            <mxPoint as="offset" />
          </mxGeometry>
        </mxCell>
        <mxCell id="Zxp3NIF342L1-s8h1Rc8-40" value="Prompt" style="whiteSpace=wrap;html=1;rounded=1;strokeColor=#006EAF;strokeWidth=2;align=center;verticalAlign=middle;fontFamily=Helvetica;fontSize=14;fontColor=#ffffff;fillColor=#1ba1e2;fontStyle=1" vertex="1" parent="1">
          <mxGeometry x="460" y="476" width="120" height="60" as="geometry" />
        </mxCell>
        <mxCell id="Zxp3NIF342L1-s8h1Rc8-41" value="" style="edgeStyle=orthogonalEdgeStyle;rounded=0;orthogonalLoop=1;jettySize=auto;html=1;fontStyle=1;fontSize=14;" edge="1" parent="1" source="Zxp3NIF342L1-s8h1Rc8-31" target="Zxp3NIF342L1-s8h1Rc8-40">
          <mxGeometry relative="1" as="geometry" />
        </mxCell>
        <mxCell id="Zxp3NIF342L1-s8h1Rc8-45" style="edgeStyle=orthogonalEdgeStyle;rounded=0;orthogonalLoop=1;jettySize=auto;html=1;fontStyle=1;fontSize=14;" edge="1" parent="1" source="Zxp3NIF342L1-s8h1Rc8-42" target="Zxp3NIF342L1-s8h1Rc8-15">
          <mxGeometry relative="1" as="geometry" />
        </mxCell>
        <mxCell id="Zxp3NIF342L1-s8h1Rc8-49" value="输出" style="edgeLabel;html=1;align=center;verticalAlign=middle;resizable=0;points=[];fontStyle=1;fontSize=14;" vertex="1" connectable="0" parent="Zxp3NIF342L1-s8h1Rc8-45">
          <mxGeometry x="-0.299" y="3" relative="1" as="geometry">
            <mxPoint as="offset" />
          </mxGeometry>
        </mxCell>
        <mxCell id="Zxp3NIF342L1-s8h1Rc8-42" value="LLM大模型" style="whiteSpace=wrap;html=1;rounded=1;strokeColor=#006EAF;strokeWidth=2;align=center;verticalAlign=middle;fontFamily=Helvetica;fontSize=14;fontColor=#ffffff;fillColor=#1ba1e2;fontStyle=1" vertex="1" parent="1">
          <mxGeometry x="180" y="479" width="130" height="54" as="geometry" />
        </mxCell>
        <mxCell id="Zxp3NIF342L1-s8h1Rc8-24" value="" style="rounded=0;whiteSpace=wrap;html=1;container=0;strokeColor=#006EAF;strokeWidth=2;align=center;verticalAlign=middle;fontFamily=Helvetica;fontSize=14;fontColor=#ffffff;fillColor=#1ba1e2;fontStyle=1" vertex="1" parent="1">
          <mxGeometry x="747" y="460" width="20" height="20" as="geometry" />
        </mxCell>
        <mxCell id="Zxp3NIF342L1-s8h1Rc8-27" value="" style="rounded=0;whiteSpace=wrap;html=1;container=0;strokeColor=#006EAF;strokeWidth=2;align=center;verticalAlign=middle;fontFamily=Helvetica;fontSize=14;fontColor=#ffffff;fillColor=#1ba1e2;fontStyle=1" vertex="1" parent="1">
          <mxGeometry x="777" y="460" width="20" height="20" as="geometry" />
        </mxCell>
        <mxCell id="Zxp3NIF342L1-s8h1Rc8-28" value="" style="rounded=0;whiteSpace=wrap;html=1;container=0;strokeColor=#006EAF;strokeWidth=2;align=center;verticalAlign=middle;fontFamily=Helvetica;fontSize=14;fontColor=#ffffff;fillColor=#1ba1e2;fontStyle=1" vertex="1" parent="1">
          <mxGeometry x="807" y="460" width="20" height="20" as="geometry" />
        </mxCell>
        <mxCell id="Zxp3NIF342L1-s8h1Rc8-31" value="" style="rounded=0;whiteSpace=wrap;html=1;container=0;strokeColor=#006EAF;strokeWidth=2;align=center;verticalAlign=middle;fontFamily=Helvetica;fontSize=14;fontColor=#ffffff;fillColor=#1ba1e2;fontStyle=1" vertex="1" parent="1">
          <mxGeometry x="748" y="496" width="19" height="20" as="geometry" />
        </mxCell>
        <mxCell id="Zxp3NIF342L1-s8h1Rc8-32" value="" style="rounded=0;whiteSpace=wrap;html=1;container=0;strokeColor=#006EAF;strokeWidth=2;align=center;verticalAlign=middle;fontFamily=Helvetica;fontSize=14;fontColor=#ffffff;fillColor=#1ba1e2;fontStyle=1" vertex="1" parent="1">
          <mxGeometry x="778" y="496" width="19" height="20" as="geometry" />
        </mxCell>
        <mxCell id="Zxp3NIF342L1-s8h1Rc8-33" value="" style="rounded=0;whiteSpace=wrap;html=1;container=0;strokeColor=#006EAF;strokeWidth=2;align=center;verticalAlign=middle;fontFamily=Helvetica;fontSize=14;fontColor=#ffffff;fillColor=#1ba1e2;fontStyle=1" vertex="1" parent="1">
          <mxGeometry x="808" y="496" width="19" height="20" as="geometry" />
        </mxCell>
        <mxCell id="Zxp3NIF342L1-s8h1Rc8-35" value="" style="rounded=0;whiteSpace=wrap;html=1;container=0;strokeColor=#006EAF;strokeWidth=2;align=center;verticalAlign=middle;fontFamily=Helvetica;fontSize=14;fontColor=#ffffff;fillColor=#1ba1e2;fontStyle=1" vertex="1" parent="1">
          <mxGeometry x="748" y="529" width="19" height="20" as="geometry" />
        </mxCell>
        <mxCell id="Zxp3NIF342L1-s8h1Rc8-36" value="" style="rounded=0;whiteSpace=wrap;html=1;container=0;strokeColor=#006EAF;strokeWidth=2;align=center;verticalAlign=middle;fontFamily=Helvetica;fontSize=14;fontColor=#ffffff;fillColor=#1ba1e2;fontStyle=1" vertex="1" parent="1">
          <mxGeometry x="778" y="529" width="19" height="20" as="geometry" />
        </mxCell>
        <mxCell id="Zxp3NIF342L1-s8h1Rc8-37" value="" style="rounded=0;whiteSpace=wrap;html=1;container=0;strokeColor=#006EAF;strokeWidth=2;align=center;verticalAlign=middle;fontFamily=Helvetica;fontSize=14;fontColor=#ffffff;fillColor=#1ba1e2;fontStyle=1" vertex="1" parent="1">
          <mxGeometry x="808" y="529" width="19" height="20" as="geometry" />
        </mxCell>
      </root>
    </mxGraphModel>
  </diagram>
</mxfile>
